<?xml version="1.0" encoding="UTF-8"?>
<svg version="1.1" xmlns="http://www.w3.org/2000/svg" width="57" height="58">
<path d="M0 0 C2.625 0.375 2.625 0.375 5 1 C4.814375 1.804375 4.62875 2.60875 4.4375 3.4375 C4.2209375 4.7059375 4.2209375 4.7059375 4 6 C4.33 6.33 4.66 6.66 5 7 C6.32 5.35 7.64 3.7 9 2 C15.16844535 4.76516516 18.64759777 9.67621063 21.375 15.75 C24.16536656 23.4439396 23.96984926 31.24089194 21.03515625 38.87109375 C18.15104465 44.80256854 14.14863638 50.00773073 8.328125 53.2734375 C2.41649126 55.11834333 -3.41311179 53.29707737 -8.78125 50.60546875 C-15.52586005 46.26819693 -20.44484652 40.66546044 -23 33 C-23.53781878 26.99090941 -23.46850491 22.14295555 -20 17 C-15.78947368 12.26315789 -15.78947368 12.26315789 -12 11 C-12 10.01 -12 9.02 -12 8 C-12.804375 8.020625 -13.60875 8.04125 -14.4375 8.0625 C-17 8 -17 8 -18 7 C-18.125 4.5 -18.125 4.5 -18 2 C-17 1 -17 1 -14.4375 0.9375 C-13.2309375 0.9684375 -13.2309375 0.9684375 -12 1 C-9 6.75 -9 6.75 -9 9 C-6.69 8.34 -4.38 7.68 -2 7 C-2.04125 6.21625 -2.0825 5.4325 -2.125 4.625 C-2 2 -2 2 0 0 Z " fill="#100D07" transform="translate(34,2)"/>
<path d="M0 0 C0.97608217 2.92824652 1.08226668 4.95613276 1 8 C4.01031744 8.93423645 4.86650268 9.04449911 8 8 C8 8.99 8 9.98 8 11 C9.11375 10.608125 10.2275 10.21625 11.375 9.8125 C16.64975883 8.46555266 21.10470678 9.85262231 26 12 C28 14 28 14 28.125 17.0625 C27.12379669 22.61568579 23.14744063 26.44805338 19 30 C16.01229023 31.92437556 13.58481873 33.02506866 10 33 C3.74311312 30.43422624 -0.07786955 24.88188489 -3 19 C-4.7710427 13.6868719 -4.95698236 8.0387885 -2.5625 2.9375 C-1 1 -1 1 0 0 Z " fill="#FCD54A" transform="translate(15,19)"/>
<path d="M0 0 C1.59134766 -0.03867188 1.59134766 -0.03867188 3.21484375 -0.078125 C6.0625 0.25 6.0625 0.25 7.94140625 1.765625 C8.31136719 2.25546875 8.68132813 2.7453125 9.0625 3.25 C8.0725 3.745 8.0725 3.745 7.0625 4.25 C7.990625 4.45625 8.91875 4.6625 9.875 4.875 C13.0625 6.25 13.0625 6.25 14.9375 8.6875 C16.48424769 13.58553435 16.3071945 18.1567292 16.0625 23.25 C15.0725 22.92 14.0825 22.59 13.0625 22.25 C13.0625 21.26 13.0625 20.27 13.0625 19.25 C11.804375 19.105625 10.54625 18.96125 9.25 18.8125 C6.63582877 18.51251314 4.58810108 18.09186703 2.0625 17.25 C1.7325 17.58 1.4025 17.91 1.0625 18.25 C-0.93708364 18.29080783 -2.93795254 18.29254356 -4.9375 18.25 C-5.2675 17.59 -5.5975 16.93 -5.9375 16.25 C-6.72125 16.45625 -7.505 16.6625 -8.3125 16.875 C-9.17875 16.99875 -10.045 17.1225 -10.9375 17.25 C-13.30790308 14.87959692 -13.28215793 14.18697247 -13.375 10.9375 C-13.30745867 7.12448479 -13.05999249 6.40472736 -10.5625 3.25 C-6.75251623 0.34715523 -4.75933549 0.0692267 0 0 Z " fill="#F7D248" transform="translate(27.9375,11.75)"/>
<path d="M0 0 C6.45696952 4.78831448 10.41148712 10.01247766 12 18 C12.82808722 28.11221897 11.12449908 36.18954776 4.76171875 44.203125 C1.90117219 47.12075564 -1.40490083 49.10207963 -5 51 C-5.99 50.34 -6.98 49.68 -8 49 C-7.113125 48.34 -6.22625 47.68 -5.3125 47 C0.85560076 41.83804334 4.40691862 34.84608791 5.21875 26.84375 C5.43903656 21.4834438 4.82290076 16.64318505 2 12 C-0.16373789 9.74490429 -2.47002636 7.82989874 -5 6 C-3.35 4.02 -1.7 2.04 0 0 Z " fill="#F3CF49" transform="translate(45,5)"/>
<path d="M0 0 C1.65 0 3.3 0 5 0 C5.33 1.65 5.66 3.3 6 5 C7.98 5 9.96 5 12 5 C12 6.32 12 7.64 12 9 C10.02 9 8.04 9 6 9 C5.67 8.34 5.34 7.68 5 7 C3.35 7.33 1.7 7.66 0 8 C-0.66 6.68 -1.32 5.36 -2 4 C-0.68 3.67 0.64 3.34 2 3 C2 2.34 2 1.68 2 1 C1.34 0.67 0.68 0.34 0 0 Z " fill="#100D06" transform="translate(17,21)"/>
<path d="M0 0 C1.670625 0.061875 1.670625 0.061875 3.375 0.125 C3.5 3 3.5 3 3.375 6.125 C1.375 8.125 1.375 8.125 -1.75 8.25 C-3.173125 8.188125 -3.173125 8.188125 -4.625 8.125 C-5.25 5.25 -5.25 5.25 -5.625 2.125 C-3.625 0.125 -3.625 0.125 0 0 Z " fill="#1C180F" transform="translate(35.625,20.875)"/>
<path d="M0 0 C1.15518918 0.90484792 2.29885406 1.8244206 3.4375 2.75 C4.07558594 3.26046875 4.71367188 3.7709375 5.37109375 4.296875 C7.18810554 6.19667629 7.60423197 7.43586908 8 10 C5.02277453 9.29666462 2.14743457 8.41751463 -0.75 7.4375 C-1.54921875 7.16808594 -2.3484375 6.89867187 -3.171875 6.62109375 C-4.07679687 6.31365234 -4.07679687 6.31365234 -5 6 C-3.35 4.02 -1.7 2.04 0 0 Z " fill="#F1F2E7" transform="translate(45,5)"/>
<path d="M0 0 C-1.98 0.99 -1.98 0.99 -4 2 C-4 2.66 -4 3.32 -4 4 C-3.01 4.33 -2.02 4.66 -1 5 C-1.99 5.495 -1.99 5.495 -3 6 C-3 6.66 -3 7.32 -3 8 C-4.32 8.33 -5.64 8.66 -7 9 C-7.125 2.25 -7.125 2.25 -6 0 C-2.49056604 -1.24528302 -2.49056604 -1.24528302 0 0 Z " fill="#887531" transform="translate(22,16)"/>
<path d="M0 0 C2.3125 0 2.3125 0 5 1 C7.81635232 6.53558905 8.32913063 10.85622815 8 17 C7.67 17 7.34 17 7 17 C6.81824219 16.11248047 6.81824219 16.11248047 6.6328125 15.20703125 C5.38366313 8.91381706 5.38366313 8.91381706 3 3 C2.01 2.67 1.02 2.34 0 2 C0 1.34 0 0.68 0 0 Z " fill="#242012" transform="translate(49,14)"/>
<path d="M0 0 C1.65 0 3.3 0 5 0 C5 1.32 5 2.64 5 4 C3.35 4 1.7 4 0 4 C0 2.68 0 1.36 0 0 Z " fill="#DE765A" transform="translate(36,31)"/>
<path d="M0 0 C2.31 0 4.62 0 7 0 C7 1.32 7 2.64 7 4 C5.02 4 3.04 4 1 4 C0.67 2.68 0.34 1.36 0 0 Z " fill="#281E0D" transform="translate(22,26)"/>
<path d="M0 0 C1.65 0 3.3 0 5 0 C5 1.32 5 2.64 5 4 C3.35 4 1.7 4 0 4 C0 2.68 0 1.36 0 0 Z " fill="#DD715A" transform="translate(13,29)"/>
</svg>
